<svg width="142" height="133" viewBox="0 0 142 133" fill="none" xmlns="http://www.w3.org/2000/svg">
<path fill-rule="evenodd" clip-rule="evenodd" d="M40.9779 0.50694C30.0509 2.66094 23.6518 10.1469 23.6518 20.7759C23.6518 24.9609 24.4379 27.7549 27.1139 33.0759C33.8179 46.4089 45.1199 57.5939 59.7828 65.4069L67.9219 69.7439L73.3699 67.0719C89.2569 59.2809 104.618 43.7839 110.591 29.5229C115.287 18.3129 111.61 8.03294 101.06 2.87094C93.3869 -0.883062 85.4239 -0.956062 77.5359 2.65494C74.4489 4.06894 71.0738 6.35394 70.0368 7.73394L68.1518 10.2419L63.9929 6.41394C58.4519 1.31494 49.0819 -1.09006 40.9779 0.50694ZM126.05 1.70994C126.931 3.22294 128.292 5.47294 129.074 6.70994C129.856 7.94694 131.259 11.6219 132.193 14.8759C133.639 19.9149 133.721 21.8409 132.75 27.8759C129.658 47.0789 119.006 58.2999 82.9018 80.3839C77.2648 83.8329 72.6708 86.9479 72.6948 87.3069C72.7178 87.6659 74.4298 89.8859 76.4978 92.2399L80.2579 96.5199L93.7048 87.2499C111.31 75.1129 122.781 63.7609 128.352 52.9599C138.332 33.6139 138.207 13.9169 128.033 2.85694C125.322 -0.0900619 124.839 -0.370061 126.05 1.70994ZM8.34484 5.24694C5.40584 8.49394 2.39886 16.7449 1.90286 22.9189C1.24086 31.1669 3.04385 39.0139 7.77085 48.4579C13.4949 59.8929 22.6909 68.7539 42.3959 81.8209C60.3849 93.7499 69.8268 102.462 74.1768 111.146C76.6248 116.031 77.0948 118.191 77.1208 124.662L77.1518 132.363L79.1508 128.662C80.7498 125.702 81.1508 123.057 81.1508 115.46C81.1518 107.093 80.8198 105.284 78.3699 100.295C74.6648 92.7509 65.5369 84.3539 53.0879 77.0369C30.7489 63.9079 25.9979 60.6449 18.7339 53.4369C13.9749 48.7159 10.0349 43.6879 8.15185 39.9369C5.44885 34.5509 5.15185 33.0209 5.15185 24.4599C5.15185 16.2329 5.51286 14.1899 7.84686 9.20994C9.32886 6.04694 10.4109 3.45994 10.2519 3.45994C10.0919 3.45994 9.23384 4.26394 8.34484 5.24694ZM72.6518 19.9099V25.3599L78.4018 25.6599L84.1518 25.9599V31.9599V37.9599L78.4018 38.2599L72.6518 38.5599V43.5099V48.4599H67.6518H62.6519V43.4599V38.4599H56.6519H50.6519V31.9599V25.4599H56.6519H62.6519V19.9599V14.4599H67.6518H72.6518V19.9099ZM140.652 28.8319C140.652 34.8879 135.815 51.4759 132.125 58.0739C123.758 73.0359 111.179 84.2529 82.9098 101.959C82.7768 102.043 83.2268 105.105 83.9098 108.765L85.1518 115.419L96.6518 106.758C102.977 101.994 112.443 93.7759 117.688 88.4959C125.359 80.7729 128.127 77.1399 131.837 69.9269C138.405 57.1589 140.731 48.9449 141.384 36.2099C141.687 30.2979 141.647 25.4599 141.294 25.4599C140.941 25.4599 140.652 26.9769 140.652 28.8319ZM4.00685 59.9529C12.6218 76.1489 21.0099 85.0449 43.1519 101.471C63.6019 116.641 69.2638 122.386 71.7178 130.454C72.3228 132.442 72.4978 131.971 72.5658 128.17C72.6628 122.763 70.2859 117.274 65.0528 110.818C61.9148 106.947 58.1249 103.924 33.6519 85.7719C21.7369 76.9339 10.3208 65.8239 4.81684 57.7099C2.48484 54.2729 0.331847 51.4599 0.0328473 51.4599C-0.267153 51.4599 1.52185 55.2819 4.00685 59.9529Z" fill="#0079FF"/>
</svg>
